<mxfile host="app.diagrams.net" agent="Mozilla/5.0 (Windows NT 10.0; Win64; x64) AppleWebKit/537.36 (KHTML, like Gecko) Chrome/126.0.0.0 Safari/537.36 Edg/126.0.0.0" version="25.0.3" pages="3">
  <diagram id="eW0jpz2CnkZtqc12b28m" name="顶层">
    <mxGraphModel dx="1105" dy="664" grid="1" gridSize="10" guides="1" tooltips="1" connect="1" arrows="1" fold="1" page="1" pageScale="1" pageWidth="2339" pageHeight="3300" math="0" shadow="0">
      <root>
        <mxCell id="0" />
        <mxCell id="1" parent="0" />
        <mxCell id="ANW22E5GQa4ODHczOvIb-76" value="管理员端" style="rounded=1;whiteSpace=wrap;html=1;" vertex="1" parent="1">
          <mxGeometry x="550" y="120" width="120" height="60" as="geometry" />
        </mxCell>
        <mxCell id="ANW22E5GQa4ODHczOvIb-78" value="用户端" style="rounded=1;whiteSpace=wrap;html=1;" vertex="1" parent="1">
          <mxGeometry x="550" y="330" width="120" height="60" as="geometry" />
        </mxCell>
        <mxCell id="ANW22E5GQa4ODHczOvIb-79" value="列车票务系统" style="rounded=1;whiteSpace=wrap;html=1;" vertex="1" parent="1">
          <mxGeometry x="340" y="220" width="120" height="60" as="geometry" />
        </mxCell>
        <mxCell id="ANW22E5GQa4ODHczOvIb-80" value="" style="edgeStyle=elbowEdgeStyle;elbow=horizontal;endArrow=none;html=1;curved=0;rounded=0;entryX=0;entryY=0.5;entryDx=0;entryDy=0;endFill=0;" edge="1" parent="1" target="ANW22E5GQa4ODHczOvIb-76">
          <mxGeometry width="50" height="50" relative="1" as="geometry">
            <mxPoint x="460" y="250" as="sourcePoint" />
            <mxPoint x="520" y="190" as="targetPoint" />
          </mxGeometry>
        </mxCell>
        <mxCell id="ANW22E5GQa4ODHczOvIb-81" value="" style="edgeStyle=elbowEdgeStyle;elbow=horizontal;endArrow=none;html=1;curved=0;rounded=0;endSize=8;startSize=8;entryX=0;entryY=0.5;entryDx=0;entryDy=0;endFill=0;" edge="1" parent="1" target="ANW22E5GQa4ODHczOvIb-78">
          <mxGeometry width="50" height="50" relative="1" as="geometry">
            <mxPoint x="460" y="250" as="sourcePoint" />
            <mxPoint x="560" y="160" as="targetPoint" />
          </mxGeometry>
        </mxCell>
      </root>
    </mxGraphModel>
  </diagram>
  <diagram id="GDPknUW2BdXl8uGx7DrP" name="管理员">
    <mxGraphModel dx="223" dy="631" grid="1" gridSize="10" guides="1" tooltips="1" connect="1" arrows="1" fold="1" page="1" pageScale="1" pageWidth="827" pageHeight="1169" math="0" shadow="0">
      <root>
        <mxCell id="0" />
        <mxCell id="1" parent="0" />
        <mxCell id="7C6_F4PMD4LBPAXCNF0h-1" value="车次信息管理" style="rounded=1;whiteSpace=wrap;html=1;" vertex="1" parent="1">
          <mxGeometry x="1130" y="210" width="120" height="60" as="geometry" />
        </mxCell>
        <mxCell id="7C6_F4PMD4LBPAXCNF0h-2" value="车票信息管理" style="rounded=1;whiteSpace=wrap;html=1;" vertex="1" parent="1">
          <mxGeometry x="1130" y="400" width="120" height="60" as="geometry" />
        </mxCell>
        <mxCell id="7C6_F4PMD4LBPAXCNF0h-3" value="用户信息管理" style="rounded=1;whiteSpace=wrap;html=1;" vertex="1" parent="1">
          <mxGeometry x="1130" y="610" width="120" height="60" as="geometry" />
        </mxCell>
        <mxCell id="7C6_F4PMD4LBPAXCNF0h-4" value="管理员端" style="rounded=1;whiteSpace=wrap;html=1;" vertex="1" parent="1">
          <mxGeometry x="920" y="400" width="120" height="60" as="geometry" />
        </mxCell>
        <mxCell id="7C6_F4PMD4LBPAXCNF0h-5" value="" style="edgeStyle=elbowEdgeStyle;elbow=horizontal;endArrow=none;html=1;curved=0;rounded=0;endSize=8;startSize=8;entryX=0;entryY=0.5;entryDx=0;entryDy=0;endFill=0;" edge="1" parent="1" target="7C6_F4PMD4LBPAXCNF0h-1">
          <mxGeometry width="50" height="50" relative="1" as="geometry">
            <mxPoint x="1040" y="430" as="sourcePoint" />
            <mxPoint x="1100" y="370" as="targetPoint" />
          </mxGeometry>
        </mxCell>
        <mxCell id="7C6_F4PMD4LBPAXCNF0h-6" value="" style="edgeStyle=elbowEdgeStyle;elbow=horizontal;endArrow=none;html=1;curved=0;rounded=0;endSize=8;startSize=8;entryX=0;entryY=0.5;entryDx=0;entryDy=0;endFill=0;" edge="1" parent="1" target="7C6_F4PMD4LBPAXCNF0h-3">
          <mxGeometry width="50" height="50" relative="1" as="geometry">
            <mxPoint x="1040" y="430" as="sourcePoint" />
            <mxPoint x="1140" y="340" as="targetPoint" />
          </mxGeometry>
        </mxCell>
        <mxCell id="7C6_F4PMD4LBPAXCNF0h-7" value="" style="endArrow=none;html=1;exitX=1;exitY=0.5;exitDx=0;exitDy=0;endFill=0;" edge="1" parent="1" source="7C6_F4PMD4LBPAXCNF0h-4" target="7C6_F4PMD4LBPAXCNF0h-2">
          <mxGeometry width="50" height="50" relative="1" as="geometry">
            <mxPoint x="1110" y="460" as="sourcePoint" />
            <mxPoint x="1160" y="410" as="targetPoint" />
          </mxGeometry>
        </mxCell>
        <mxCell id="7C6_F4PMD4LBPAXCNF0h-8" value="增删改车次信息" style="rounded=1;whiteSpace=wrap;html=1;" vertex="1" parent="1">
          <mxGeometry x="1320" y="160" width="120" height="60" as="geometry" />
        </mxCell>
        <mxCell id="7C6_F4PMD4LBPAXCNF0h-9" value="车次信息列表" style="rounded=1;whiteSpace=wrap;html=1;" vertex="1" parent="1">
          <mxGeometry x="1320" y="260" width="120" height="60" as="geometry" />
        </mxCell>
        <mxCell id="7C6_F4PMD4LBPAXCNF0h-10" value="增删改列车票" style="rounded=1;whiteSpace=wrap;html=1;" vertex="1" parent="1">
          <mxGeometry x="1320" y="350" width="120" height="60" as="geometry" />
        </mxCell>
        <mxCell id="7C6_F4PMD4LBPAXCNF0h-11" value="车票信息列表" style="rounded=1;whiteSpace=wrap;html=1;" vertex="1" parent="1">
          <mxGeometry x="1320" y="450" width="120" height="60" as="geometry" />
        </mxCell>
        <mxCell id="7C6_F4PMD4LBPAXCNF0h-12" value="增删改用户信息" style="rounded=1;whiteSpace=wrap;html=1;" vertex="1" parent="1">
          <mxGeometry x="1320" y="560" width="120" height="60" as="geometry" />
        </mxCell>
        <mxCell id="7C6_F4PMD4LBPAXCNF0h-13" value="用户信息列表" style="rounded=1;whiteSpace=wrap;html=1;" vertex="1" parent="1">
          <mxGeometry x="1320" y="660" width="120" height="60" as="geometry" />
        </mxCell>
        <mxCell id="7C6_F4PMD4LBPAXCNF0h-14" value="" style="edgeStyle=elbowEdgeStyle;elbow=horizontal;endArrow=none;html=1;curved=0;rounded=0;endSize=8;startSize=8;entryX=0;entryY=0.5;entryDx=0;entryDy=0;endFill=0;exitX=1;exitY=0.5;exitDx=0;exitDy=0;" edge="1" parent="1" source="7C6_F4PMD4LBPAXCNF0h-1" target="7C6_F4PMD4LBPAXCNF0h-8">
          <mxGeometry width="50" height="50" relative="1" as="geometry">
            <mxPoint x="1050" y="440" as="sourcePoint" />
            <mxPoint x="1140" y="250" as="targetPoint" />
          </mxGeometry>
        </mxCell>
        <mxCell id="7C6_F4PMD4LBPAXCNF0h-15" value="" style="edgeStyle=elbowEdgeStyle;elbow=horizontal;endArrow=none;html=1;curved=0;rounded=0;endSize=8;startSize=8;entryX=0;entryY=0.5;entryDx=0;entryDy=0;endFill=0;exitX=1;exitY=0.5;exitDx=0;exitDy=0;" edge="1" parent="1" source="7C6_F4PMD4LBPAXCNF0h-1" target="7C6_F4PMD4LBPAXCNF0h-9">
          <mxGeometry width="50" height="50" relative="1" as="geometry">
            <mxPoint x="1060" y="450" as="sourcePoint" />
            <mxPoint x="1150" y="260" as="targetPoint" />
          </mxGeometry>
        </mxCell>
        <mxCell id="7C6_F4PMD4LBPAXCNF0h-16" value="" style="edgeStyle=elbowEdgeStyle;elbow=horizontal;endArrow=none;html=1;curved=0;rounded=0;endSize=8;startSize=8;entryX=0;entryY=0.5;entryDx=0;entryDy=0;endFill=0;exitX=1;exitY=0.5;exitDx=0;exitDy=0;" edge="1" parent="1" source="7C6_F4PMD4LBPAXCNF0h-2" target="7C6_F4PMD4LBPAXCNF0h-10">
          <mxGeometry width="50" height="50" relative="1" as="geometry">
            <mxPoint x="1070" y="460" as="sourcePoint" />
            <mxPoint x="1160" y="270" as="targetPoint" />
          </mxGeometry>
        </mxCell>
        <mxCell id="7C6_F4PMD4LBPAXCNF0h-17" value="" style="edgeStyle=elbowEdgeStyle;elbow=horizontal;endArrow=none;html=1;curved=0;rounded=0;endSize=8;startSize=8;entryX=0;entryY=0.5;entryDx=0;entryDy=0;endFill=0;exitX=1;exitY=0.5;exitDx=0;exitDy=0;" edge="1" parent="1" source="7C6_F4PMD4LBPAXCNF0h-2" target="7C6_F4PMD4LBPAXCNF0h-11">
          <mxGeometry width="50" height="50" relative="1" as="geometry">
            <mxPoint x="1080" y="470" as="sourcePoint" />
            <mxPoint x="1170" y="280" as="targetPoint" />
          </mxGeometry>
        </mxCell>
        <mxCell id="7C6_F4PMD4LBPAXCNF0h-18" value="" style="edgeStyle=elbowEdgeStyle;elbow=horizontal;endArrow=none;html=1;curved=0;rounded=0;endSize=8;startSize=8;entryX=0;entryY=0.5;entryDx=0;entryDy=0;endFill=0;exitX=1;exitY=0.5;exitDx=0;exitDy=0;" edge="1" parent="1" source="7C6_F4PMD4LBPAXCNF0h-3" target="7C6_F4PMD4LBPAXCNF0h-12">
          <mxGeometry width="50" height="50" relative="1" as="geometry">
            <mxPoint x="1090" y="480" as="sourcePoint" />
            <mxPoint x="1180" y="290" as="targetPoint" />
          </mxGeometry>
        </mxCell>
        <mxCell id="7C6_F4PMD4LBPAXCNF0h-19" value="" style="edgeStyle=elbowEdgeStyle;elbow=horizontal;endArrow=none;html=1;curved=0;rounded=0;endSize=8;startSize=8;entryX=0;entryY=0.5;entryDx=0;entryDy=0;endFill=0;exitX=1;exitY=0.5;exitDx=0;exitDy=0;" edge="1" parent="1" source="7C6_F4PMD4LBPAXCNF0h-3" target="7C6_F4PMD4LBPAXCNF0h-13">
          <mxGeometry width="50" height="50" relative="1" as="geometry">
            <mxPoint x="1100" y="490" as="sourcePoint" />
            <mxPoint x="1190" y="300" as="targetPoint" />
          </mxGeometry>
        </mxCell>
      </root>
    </mxGraphModel>
  </diagram>
  <diagram id="mvZjnpQBX5WFLjbPQ0Fs" name="用户">
    <mxGraphModel dx="875" dy="526" grid="1" gridSize="10" guides="1" tooltips="1" connect="1" arrows="1" fold="1" page="1" pageScale="1" pageWidth="827" pageHeight="1169" math="0" shadow="0">
      <root>
        <mxCell id="0" />
        <mxCell id="1" parent="0" />
        <mxCell id="BiPkNwdcT6vjIdkoBPob-1" value="用户端" style="rounded=1;whiteSpace=wrap;html=1;" vertex="1" parent="1">
          <mxGeometry x="130" y="610" width="120" height="60" as="geometry" />
        </mxCell>
        <mxCell id="BiPkNwdcT6vjIdkoBPob-2" value="用户中心" style="rounded=1;whiteSpace=wrap;html=1;" vertex="1" parent="1">
          <mxGeometry x="380" y="372" width="120" height="60" as="geometry" />
        </mxCell>
        <mxCell id="BiPkNwdcT6vjIdkoBPob-3" value="订单中心" style="rounded=1;whiteSpace=wrap;html=1;" vertex="1" parent="1">
          <mxGeometry x="380" y="610" width="120" height="60" as="geometry" />
        </mxCell>
        <mxCell id="BiPkNwdcT6vjIdkoBPob-4" value="购票中心" style="rounded=1;whiteSpace=wrap;html=1;" vertex="1" parent="1">
          <mxGeometry x="380" y="840" width="120" height="60" as="geometry" />
        </mxCell>
        <mxCell id="BiPkNwdcT6vjIdkoBPob-5" value="" style="edgeStyle=elbowEdgeStyle;elbow=horizontal;endArrow=none;html=1;curved=0;rounded=0;endSize=8;startSize=8;entryX=0;entryY=0.5;entryDx=0;entryDy=0;endFill=0;exitX=1;exitY=0.5;exitDx=0;exitDy=0;" edge="1" parent="1" source="BiPkNwdcT6vjIdkoBPob-1" target="BiPkNwdcT6vjIdkoBPob-2">
          <mxGeometry width="50" height="50" relative="1" as="geometry">
            <mxPoint x="250" y="630" as="sourcePoint" />
            <mxPoint x="340" y="440" as="targetPoint" />
          </mxGeometry>
        </mxCell>
        <mxCell id="BiPkNwdcT6vjIdkoBPob-6" value="" style="edgeStyle=elbowEdgeStyle;elbow=horizontal;endArrow=none;html=1;curved=0;rounded=0;endSize=8;startSize=8;entryX=0;entryY=0.5;entryDx=0;entryDy=0;endFill=0;exitX=1;exitY=0.5;exitDx=0;exitDy=0;" edge="1" parent="1" source="BiPkNwdcT6vjIdkoBPob-1" target="BiPkNwdcT6vjIdkoBPob-4">
          <mxGeometry width="50" height="50" relative="1" as="geometry">
            <mxPoint x="250" y="630" as="sourcePoint" />
            <mxPoint x="340" y="840" as="targetPoint" />
          </mxGeometry>
        </mxCell>
        <mxCell id="BiPkNwdcT6vjIdkoBPob-7" value="" style="endArrow=none;html=1;endFill=0;entryX=0;entryY=0.5;entryDx=0;entryDy=0;" edge="1" parent="1" target="BiPkNwdcT6vjIdkoBPob-3">
          <mxGeometry width="50" height="50" relative="1" as="geometry">
            <mxPoint x="250" y="640" as="sourcePoint" />
            <mxPoint x="340" y="630" as="targetPoint" />
          </mxGeometry>
        </mxCell>
        <mxCell id="BiPkNwdcT6vjIdkoBPob-8" value="个人信息" style="rounded=1;whiteSpace=wrap;html=1;" vertex="1" parent="1">
          <mxGeometry x="570" y="300" width="80" height="30" as="geometry" />
        </mxCell>
        <mxCell id="BiPkNwdcT6vjIdkoBPob-9" value="修改信息" style="rounded=1;whiteSpace=wrap;html=1;" vertex="1" parent="1">
          <mxGeometry x="570" y="350" width="80" height="30" as="geometry" />
        </mxCell>
        <mxCell id="BiPkNwdcT6vjIdkoBPob-10" value="车次列表" style="rounded=1;whiteSpace=wrap;html=1;" vertex="1" parent="1">
          <mxGeometry x="570" y="405" width="80" height="30" as="geometry" />
        </mxCell>
        <mxCell id="BiPkNwdcT6vjIdkoBPob-11" value="关联用户" style="rounded=1;whiteSpace=wrap;html=1;" vertex="1" parent="1">
          <mxGeometry x="570" y="460" width="80" height="30" as="geometry" />
        </mxCell>
        <mxCell id="BiPkNwdcT6vjIdkoBPob-12" value="车票绑定" style="rounded=1;whiteSpace=wrap;html=1;" vertex="1" parent="1">
          <mxGeometry x="570" y="520" width="80" height="30" as="geometry" />
        </mxCell>
        <mxCell id="BiPkNwdcT6vjIdkoBPob-13" value="订单查询" style="rounded=1;whiteSpace=wrap;html=1;" vertex="1" parent="1">
          <mxGeometry x="570" y="570" width="80" height="30" as="geometry" />
        </mxCell>
        <mxCell id="BiPkNwdcT6vjIdkoBPob-14" value="支付信息" style="rounded=1;whiteSpace=wrap;html=1;" vertex="1" parent="1">
          <mxGeometry x="570" y="680" width="80" height="30" as="geometry" />
        </mxCell>
        <mxCell id="BiPkNwdcT6vjIdkoBPob-15" value="退款信息" style="rounded=1;whiteSpace=wrap;html=1;" vertex="1" parent="1">
          <mxGeometry x="570" y="735" width="80" height="30" as="geometry" />
        </mxCell>
        <mxCell id="BiPkNwdcT6vjIdkoBPob-16" value="订票支付" style="rounded=1;whiteSpace=wrap;html=1;" vertex="1" parent="1">
          <mxGeometry x="570" y="800" width="80" height="30" as="geometry" />
        </mxCell>
        <mxCell id="BiPkNwdcT6vjIdkoBPob-17" value="购票查询" style="rounded=1;whiteSpace=wrap;html=1;" vertex="1" parent="1">
          <mxGeometry x="570" y="855" width="80" height="30" as="geometry" />
        </mxCell>
        <mxCell id="BiPkNwdcT6vjIdkoBPob-18" value="退订查询" style="rounded=1;whiteSpace=wrap;html=1;" vertex="1" parent="1">
          <mxGeometry x="570" y="910" width="80" height="30" as="geometry" />
        </mxCell>
        <mxCell id="BiPkNwdcT6vjIdkoBPob-19" value="" style="edgeStyle=elbowEdgeStyle;elbow=horizontal;endArrow=none;html=1;curved=0;rounded=0;endSize=8;startSize=8;entryX=0;entryY=0.5;entryDx=0;entryDy=0;endFill=0;exitX=1;exitY=0.5;exitDx=0;exitDy=0;" edge="1" parent="1" source="BiPkNwdcT6vjIdkoBPob-3" target="BiPkNwdcT6vjIdkoBPob-12">
          <mxGeometry width="50" height="50" relative="1" as="geometry">
            <mxPoint x="260" y="650" as="sourcePoint" />
            <mxPoint x="390" y="447" as="targetPoint" />
          </mxGeometry>
        </mxCell>
        <mxCell id="BiPkNwdcT6vjIdkoBPob-20" value="" style="edgeStyle=elbowEdgeStyle;elbow=horizontal;endArrow=none;html=1;curved=0;rounded=0;endSize=8;startSize=8;entryX=0;entryY=0.5;entryDx=0;entryDy=0;endFill=0;exitX=1;exitY=0.5;exitDx=0;exitDy=0;" edge="1" parent="1" source="BiPkNwdcT6vjIdkoBPob-3" target="BiPkNwdcT6vjIdkoBPob-13">
          <mxGeometry width="50" height="50" relative="1" as="geometry">
            <mxPoint x="510" y="650" as="sourcePoint" />
            <mxPoint x="580" y="585.0000000000002" as="targetPoint" />
          </mxGeometry>
        </mxCell>
        <mxCell id="BiPkNwdcT6vjIdkoBPob-21" value="" style="edgeStyle=elbowEdgeStyle;elbow=horizontal;endArrow=none;html=1;curved=0;rounded=0;endSize=8;startSize=8;entryX=0;entryY=0.5;entryDx=0;entryDy=0;endFill=0;" edge="1" parent="1" source="BiPkNwdcT6vjIdkoBPob-3" target="BiPkNwdcT6vjIdkoBPob-14">
          <mxGeometry width="50" height="50" relative="1" as="geometry">
            <mxPoint x="520" y="660" as="sourcePoint" />
            <mxPoint x="590" y="595.0000000000002" as="targetPoint" />
          </mxGeometry>
        </mxCell>
        <mxCell id="BiPkNwdcT6vjIdkoBPob-22" value="" style="edgeStyle=elbowEdgeStyle;elbow=horizontal;endArrow=none;html=1;curved=0;rounded=0;endSize=8;startSize=8;entryX=0;entryY=0.5;entryDx=0;entryDy=0;endFill=0;" edge="1" parent="1" target="BiPkNwdcT6vjIdkoBPob-15">
          <mxGeometry width="50" height="50" relative="1" as="geometry">
            <mxPoint x="500" y="640" as="sourcePoint" />
            <mxPoint x="600" y="605.0000000000002" as="targetPoint" />
          </mxGeometry>
        </mxCell>
        <mxCell id="BiPkNwdcT6vjIdkoBPob-23" value="" style="edgeStyle=elbowEdgeStyle;elbow=horizontal;endArrow=none;html=1;curved=0;rounded=0;endSize=8;startSize=8;entryX=0;entryY=0.5;entryDx=0;entryDy=0;endFill=0;exitX=1;exitY=0.5;exitDx=0;exitDy=0;" edge="1" parent="1" source="BiPkNwdcT6vjIdkoBPob-2" target="BiPkNwdcT6vjIdkoBPob-11">
          <mxGeometry width="50" height="50" relative="1" as="geometry">
            <mxPoint x="540" y="645" as="sourcePoint" />
            <mxPoint x="610" y="580.0000000000002" as="targetPoint" />
          </mxGeometry>
        </mxCell>
        <mxCell id="BiPkNwdcT6vjIdkoBPob-24" value="" style="edgeStyle=elbowEdgeStyle;elbow=horizontal;endArrow=none;html=1;curved=0;rounded=0;endSize=8;startSize=8;entryX=0;entryY=0.5;entryDx=0;entryDy=0;endFill=0;exitX=1;exitY=0.5;exitDx=0;exitDy=0;" edge="1" parent="1" source="BiPkNwdcT6vjIdkoBPob-2" target="BiPkNwdcT6vjIdkoBPob-10">
          <mxGeometry width="50" height="50" relative="1" as="geometry">
            <mxPoint x="550" y="655" as="sourcePoint" />
            <mxPoint x="620" y="590.0000000000002" as="targetPoint" />
          </mxGeometry>
        </mxCell>
        <mxCell id="BiPkNwdcT6vjIdkoBPob-25" value="" style="edgeStyle=elbowEdgeStyle;elbow=horizontal;endArrow=none;html=1;curved=0;rounded=0;endSize=8;startSize=8;entryX=0;entryY=0.5;entryDx=0;entryDy=0;endFill=0;exitX=1;exitY=0.5;exitDx=0;exitDy=0;" edge="1" parent="1" source="BiPkNwdcT6vjIdkoBPob-2" target="BiPkNwdcT6vjIdkoBPob-9">
          <mxGeometry width="50" height="50" relative="1" as="geometry">
            <mxPoint x="560" y="665" as="sourcePoint" />
            <mxPoint x="630" y="600.0000000000002" as="targetPoint" />
          </mxGeometry>
        </mxCell>
        <mxCell id="BiPkNwdcT6vjIdkoBPob-26" value="" style="edgeStyle=elbowEdgeStyle;elbow=horizontal;endArrow=none;html=1;curved=0;rounded=0;endSize=8;startSize=8;entryX=0;entryY=0.5;entryDx=0;entryDy=0;endFill=0;exitX=1;exitY=0.5;exitDx=0;exitDy=0;" edge="1" parent="1" source="BiPkNwdcT6vjIdkoBPob-2" target="BiPkNwdcT6vjIdkoBPob-8">
          <mxGeometry width="50" height="50" relative="1" as="geometry">
            <mxPoint x="570" y="675" as="sourcePoint" />
            <mxPoint x="640" y="610.0000000000002" as="targetPoint" />
          </mxGeometry>
        </mxCell>
        <mxCell id="BiPkNwdcT6vjIdkoBPob-27" value="" style="edgeStyle=elbowEdgeStyle;elbow=horizontal;endArrow=none;html=1;curved=0;rounded=0;endSize=8;startSize=8;entryX=0;entryY=0.5;entryDx=0;entryDy=0;endFill=0;exitX=1;exitY=0.5;exitDx=0;exitDy=0;" edge="1" parent="1" source="BiPkNwdcT6vjIdkoBPob-4" target="BiPkNwdcT6vjIdkoBPob-16">
          <mxGeometry width="50" height="50" relative="1" as="geometry">
            <mxPoint x="580" y="740" as="sourcePoint" />
            <mxPoint x="650" y="675.0000000000002" as="targetPoint" />
          </mxGeometry>
        </mxCell>
        <mxCell id="BiPkNwdcT6vjIdkoBPob-28" value="" style="edgeStyle=elbowEdgeStyle;elbow=horizontal;endArrow=none;html=1;curved=0;rounded=0;endSize=8;startSize=8;endFill=0;exitX=1;exitY=0.5;exitDx=0;exitDy=0;" edge="1" parent="1" source="BiPkNwdcT6vjIdkoBPob-4">
          <mxGeometry width="50" height="50" relative="1" as="geometry">
            <mxPoint x="590" y="750" as="sourcePoint" />
            <mxPoint x="570" y="870" as="targetPoint" />
          </mxGeometry>
        </mxCell>
        <mxCell id="BiPkNwdcT6vjIdkoBPob-29" value="" style="edgeStyle=elbowEdgeStyle;elbow=horizontal;endArrow=none;html=1;curved=0;rounded=0;endSize=8;startSize=8;entryX=0;entryY=0.5;entryDx=0;entryDy=0;endFill=0;exitX=1;exitY=0.5;exitDx=0;exitDy=0;" edge="1" parent="1" source="BiPkNwdcT6vjIdkoBPob-4" target="BiPkNwdcT6vjIdkoBPob-18">
          <mxGeometry width="50" height="50" relative="1" as="geometry">
            <mxPoint x="600" y="760" as="sourcePoint" />
            <mxPoint x="670" y="695.0000000000002" as="targetPoint" />
          </mxGeometry>
        </mxCell>
        <mxCell id="BiPkNwdcT6vjIdkoBPob-30" value="" style="endArrow=none;html=1;endFill=0;exitX=1;exitY=0.5;exitDx=0;exitDy=0;" edge="1" parent="1" source="BiPkNwdcT6vjIdkoBPob-3" target="BiPkNwdcT6vjIdkoBPob-31">
          <mxGeometry width="50" height="50" relative="1" as="geometry">
            <mxPoint x="500" y="640" as="sourcePoint" />
            <mxPoint x="670" y="639" as="targetPoint" />
          </mxGeometry>
        </mxCell>
        <mxCell id="BiPkNwdcT6vjIdkoBPob-31" value="票单关联" style="rounded=1;whiteSpace=wrap;html=1;" vertex="1" parent="1">
          <mxGeometry x="570" y="625" width="80" height="30" as="geometry" />
        </mxCell>
      </root>
    </mxGraphModel>
  </diagram>
</mxfile>
